<?xml version="1.0" encoding="utf-8"?>
<!-- Generator: Adobe Illustrator 16.0.0, SVG Export Plug-In . SVG Version: 6.00 Build 0)  -->
<!DOCTYPE svg PUBLIC "-//W3C//DTD SVG 1.1//EN" "http://www.w3.org/Graphics/SVG/1.1/DTD/svg11.dtd">
<svg version="1.1" id="Layer_1" xmlns="http://www.w3.org/2000/svg" xmlns:xlink="http://www.w3.org/1999/xlink" x="0px" y="0px"
	 width="141px" height="40px" viewBox="0 0 141 40" enable-background="new 0 0 141 40" xml:space="preserve">
<g>
	<path fill="#5B5699" d="M50.11,17.466c0-6.228-4.632-8.123-8.393-8.123c-3.467,0-6.596,1.475-9.058,3.663l2.878,3.406
		c2.008-1.556,3.548-2.398,5.764-2.398c1.796,0,3.755,0.758,3.755,3.366c-10.312,0.505-13.064,3.956-13.064,7.957
		c0,3.789,2.921,6.231,7.261,6.231c2.421,0,4.805-0.931,6.304-2.067l5.387,2.105c-0.794-2.063-0.835-4.295-0.835-5.556L50.11,17.466
		L50.11,17.466z M45.057,21.674c0,3.535-2.837,5.56-5.174,5.56c-1.714,0-2.838-0.803-2.838-2.067c0-1.767,1.916-3.32,8.014-3.7
		v0.209L45.057,21.674L45.057,21.674z"/>
	<path fill="#5B5699" d="M67.106,9.34c-2.674,0-4.342,0.928-5.932,1.896l-4.549-1.56v21.551h5.052V18.814
		c0-3.036,1.876-4.8,4.425-4.8c2.463,0,4.299,1.6,4.299,4.672v12.54h5.055V18.394C75.454,12.878,71.99,9.34,67.106,9.34z"/>
	<polygon fill="#5B5699" points="108.896,31.228 113.945,31.228 113.945,0 108.896,1.766 	"/>
	<path fill="#5B5699" d="M141,20.328c0-6.021-4.383-10.987-10.643-10.987c-6.099,0-11.023,4.968-11.023,11.112
		c0,2.697,0.717,4.927,2.174,6.821c2.045,2.604,5.176,4.294,8.895,4.294c3.711,0,6.474-1.307,9.265-4.171l-3.379-3.109
		c-2.175,2.101-4.179,2.604-5.886,2.604c-2.588,0-5.217-1.979-5.553-4.46h15.992C140.839,22.433,141,21.124,141,20.328z
		 M124.887,17.971c0.665-2.273,2.965-3.958,5.469-3.958c2.459,0,4.506,1.641,5.095,3.958H124.887z"/>
	<path fill="#5B5699" d="M97.12,11.278c-1.499-1.055-3.67-1.938-6.095-1.938c-2.881,0-5.588,1.139-7.514,3.074
		c-2.048,2.02-3.257,4.923-3.257,8.039c0,3.114,1.209,6.019,3.257,8.033c1.926,1.943,4.633,3.083,7.514,3.083
		c2.336,0,4.341-0.761,5.841-1.983c0,0.075-0.036,6.944-7.065,7.314c0,0,1.329,3.101,4.383,3.101c3.06,0,7.734-2.72,7.737-10.415
		l0,0V9.68L97.12,11.278z M91.232,26.89c-3.297,0-5.795-2.856-5.795-6.438c0-3.579,2.498-6.441,5.795-6.441
		c3.302,0,5.765,2.86,5.765,6.441C96.997,24.032,94.537,26.89,91.232,26.89z"/>
	<g>
		<g>
			<path fill="#5B5699" d="M9.952,14.584c1.58-1.571,3.742-2.537,6.13-2.537v-1.913c-2.908,0-5.548,1.187-7.467,3.101L9.952,14.584z
				"/>
			<path fill="#5B5699" d="M21.654,5.583l-0.003,15.285c-0.031,3.104-2.505,5.574-5.57,5.574c-3.042,0-5.491-2.44-5.565-5.502
				l-4.904,1.707c0.861,5.064,5.218,8.924,10.469,8.924c5.828,0,10.559-4.761,10.624-10.646h0.001V8.642L21.654,5.583z"/>
		</g>
		<path fill="#5B5699" d="M26.116,30.885c-2.681,2.703-6.246,4.19-10.034,4.19c-7.822,0-14.186-6.412-14.186-14.297
			c0-7.886,6.364-14.302,14.182-14.305c0.702,0,1.391,0.055,2.068,0.154V4.703c-0.677-0.089-1.365-0.136-2.067-0.136l0,0
			c0,0,0,0-0.001,0h-0.001l0,0C7.211,4.573,0,11.84,0,20.776c0,8.938,7.214,16.21,16.079,16.21c4.298,0,8.336-1.691,11.375-4.758
			L26.116,30.885z"/>
	</g>
</g>
</svg>
